<svg width="1474" height="939" viewBox="0 0 1474 939" fill="none" xmlns="http://www.w3.org/2000/svg">
<path d="M609.224 0.150551H905.061C920.163 0.150551 927.271 3.70415 927.271 11.6997C927.271 21.4722 918.387 25.0257 891.735 26.8025C782.462 33.0213 780.685 37.4633 781.573 100.54V492.323C781.573 616.699 770.912 667.338 733.6 714.423C690.957 768.615 633.211 797.932 569.246 797.932C523.938 797.932 496.397 777.499 496.397 744.629C496.397 718.865 515.942 700.209 543.483 700.209C564.804 700.209 584.349 710.869 597.675 729.526C615.443 755.289 618.108 757.066 634.988 757.066C653.644 757.066 666.97 745.517 674.077 723.307C681.184 702.874 682.073 691.325 685.626 532.301V80.1064C686.515 38.3517 677.631 29.4677 632.322 26.8025C607.447 26.8025 595.01 22.3605 595.01 12.5881C595.01 6.36936 601.228 0.150551 609.224 0.150551Z" fill="black"/>
<path d="M976.866 218.741C1079.03 218.741 1161.65 305.804 1161.65 413.3C1161.65 522.573 1078.14 607.86 970.647 607.86C913.79 607.86 872.923 590.092 832.057 545.672C799.187 511.024 781.419 464.827 781.419 415.965C781.419 304.027 865.816 218.741 976.866 218.741ZM974.201 241.84C947.549 241.84 925.339 251.612 907.571 269.38C886.249 292.478 870.258 352.889 870.258 408.858C870.258 481.707 879.142 520.797 901.352 551.89C917.343 573.212 945.772 587.427 974.201 587.427C1040.83 587.427 1075.48 525.239 1075.48 407.97C1075.48 299.585 1039.94 241.84 974.201 241.84Z" fill="black"/>
<path d="M1237.04 274.838L1236.16 506.71C1236.16 548.465 1253.04 573.341 1283.24 573.341C1294.79 573.341 1316.11 568.898 1338.32 561.791C1342.76 560.903 1347.21 560.014 1350.76 560.014C1356.98 560.014 1358.75 563.568 1358.75 574.229C1358.75 580.448 1357.87 581.336 1351.65 584.002C1348.98 584.89 1344.54 586.667 1340.1 588.443C1301.01 604.435 1285.91 607.988 1257.48 607.988C1198.84 607.988 1159.75 571.563 1160.64 517.371L1162.42 275.727L1110.43 276.254C1100.65 276.254 1096.21 272.701 1096.21 264.705C1096.21 257.598 1099.77 252.267 1112.2 243.383C1128.19 231.834 1154.42 222.423 1211.28 169.119C1219.28 161.123 1224.61 157.57 1228.16 157.57C1234.38 157.57 1238.82 162.012 1238.82 168.231L1237.04 239.302H1341.88C1358.75 239.302 1360.53 240.191 1360.53 246.41C1360.53 253.517 1356.98 268.62 1355.2 271.285C1353.42 273.95 1348.98 274.838 1339.21 274.838H1237.04Z" fill="black"/>
<path d="M88.8398 13.4767L1384.42 13.4766C1426.13 13.4766 1459.94 47.2853 1459.94 88.9905V849.815C1459.94 891.521 1426.13 925.329 1384.42 925.329L88.8398 925.329C47.1347 925.329 13.326 891.521 13.326 849.815V88.9905C13.326 47.2853 47.1347 13.4767 88.8398 13.4767Z" stroke="black" stroke-width="26.652"/>
</svg>
